<svg xmlns="http://www.w3.org/2000/svg" viewBox="0 0 240 320" width="240" height="320">
  <rect width="100%" height="100%" fill="#ffffff"/>
  <rect x="1" y="1" width="238" height="318" rx="20" fill="#f8fafc" stroke="#e2e8f0"/>
  <line x1="24" y1="36" x2="24" y2="248" stroke="#cbd5e1" stroke-width="1"/>
  <line x1="24" y1="248" x2="216" y2="248" stroke="#cbd5e1" stroke-width="1"/>
  <line x1="56" y1="84" x2="56" y2="212" stroke="#ef4444" stroke-width="4" stroke-linecap="round"/>
  <rect x="46" y="96" width="20" height="98" rx="3" fill="#ef4444" opacity="0.92"/>
  <line x1="96" y1="108" x2="96" y2="170" stroke="#22c55e" stroke-width="4" stroke-linecap="round"/>
  <rect x="89" y="118" width="14" height="36" rx="3" fill="#22c55e" opacity="0.92"/>
  <line x1="124" y1="116" x2="124" y2="176" stroke="#22c55e" stroke-width="4" stroke-linecap="round"/>
  <rect x="117" y="126" width="14" height="36" rx="3" fill="#22c55e" opacity="0.92"/>
  <line x1="152" y1="120" x2="152" y2="184" stroke="#22c55e" stroke-width="4" stroke-linecap="round"/>
  <rect x="145" y="132" width="14" height="36" rx="3" fill="#22c55e" opacity="0.92"/>
  <line x1="188" y1="62" x2="188" y2="196" stroke="#ef4444" stroke-width="4" stroke-linecap="round"/>
  <rect x="177" y="74" width="22" height="104" rx="3" fill="#ef4444" opacity="0.92"/>
</svg>
